<?xml version="1.0" encoding="UTF-8"?>
<svg width="25px" height="25px" viewBox="0 0 25 25" version="1.1" xmlns="http://www.w3.org/2000/svg" xmlns:xlink="http://www.w3.org/1999/xlink">
    <title>icon-eye-open-type03</title>
    <g id="icon-set最新整理" stroke="none" stroke-width="1" fill="none" fill-rule="evenodd">
        <g id="images/h5/icon-set" transform="translate(-327.000000, -256.000000)" fill="#333333" fill-rule="nonzero">
            <g id="icon-eye-open-type03" transform="translate(327.000000, 256.000000)">
                <g id="Shape-2" transform="translate(3.000000, 7.000000)">
                    <path d="M18.7499997,5.62197325 C18.7499997,7.41851087 14.8846261,11.2497274 9.37499973,11.2497274 C4.00608423,11.2508833 0,7.48184096 0,5.62197325 C0,3.76319738 4.02374801,8.8817842e-16 9.37499973,8.8817842e-16 C14.9267837,8.8817842e-16 18.7511771,3.76319738 18.7499997,5.62197325 L18.7499997,5.62197325 L18.7499997,5.62197325 Z M9.38320005,1.02730557 C6.88761641,1.02730557 4.86580785,3.08536369 4.86580785,5.62428551 C4.86580785,8.16320732 6.88879399,10.2224429 9.38320005,10.2224429 C11.8788478,10.2224429 13.9018554,8.16320732 13.9018554,5.62428551 C13.9018554,3.08536369 11.8788265,1.02730557 9.38320005,1.02730557 L9.38320005,1.02730557 L9.38320005,1.02730557 Z M9.37499973,2.69020333 C7.78594343,2.69020333 6.49824214,4.00129556 6.49824214,5.61844062 C6.49824214,7.2355428 7.78596484,8.54545756 9.37499973,8.54545756 C10.9640346,8.54545756 12.2517573,7.23436533 12.2517573,5.61715604 C12.2517573,4.00013945 10.9640561,2.69020333 9.37499973,2.69020333 L9.37499973,2.69020333 L9.37499973,2.69020333 Z" id="Shape"></path>
                </g>
            </g>
        </g>
    </g>
</svg>