<?xml version="1.0" encoding="UTF-8"?>
<svg width="16px" height="16px" viewBox="0 0 16 16" version="1.1" xmlns="http://www.w3.org/2000/svg" xmlns:xlink="http://www.w3.org/1999/xlink">
    <title>icon/clean</title>
    <g id="icon/clean" stroke="none" stroke-width="1" fill="none" fill-rule="evenodd">
        <path d="M8,1 C11.86575,1 15,4.13425 15,8 C15,11.86575 11.86575,15 8,15 C4.13425,15 1,11.86575 1,8 C1,4.13425 4.13425,1 8,1 Z M10.8336166,4.73506885 C10.4801905,4.40549371 9.92650864,4.42482871 9.59693351,4.77825477 L7.827,6.675 L5.99371843,4.84114912 C5.65200968,4.49944037 5.09799032,4.49944037 4.75628157,4.84114912 C4.41457281,5.18285788 4.41457281,5.73687723 4.75628157,6.07858599 L6.633,7.955 L4.82294499,9.89773068 C4.49336985,10.2511567 4.51270485,10.8048386 4.86613091,11.1344137 C5.21955697,11.4639889 5.77323883,11.4446539 6.10281396,11.0912278 L7.871,9.193 L9.70602903,11.0283335 C10.0477378,11.3700422 10.6017571,11.3700422 10.9434659,11.0283335 C11.2851747,10.6866247 11.2851747,10.1326053 10.9434659,9.79089659 L9.065,7.913 L10.8768025,5.9717519 C11.2063776,5.61832584 11.1870426,5.06464398 10.8336166,4.73506885 Z" id="Combined-Shape" fill="#6F7784" fill-rule="nonzero"></path>
    </g>
</svg>